<svg xmlns="http://www.w3.org/2000/svg" width="120" height="210" viewBox="0 0 120 210"><g><g opacity=".3"><path fill="#abafbf" d="M120 210H3.337v-23.76l57.795-75.264c8.342-11.098 14.26-20.346 17.756-27.744 3.575-7.493 5.362-14.987 5.362-22.48 0-9.864-2.343-17.832-7.03-23.902-4.608-6.07-10.845-9.106-18.71-9.106-9.374 0-16.643 3.415-21.807 10.244-5.164 6.83-7.746 16.172-7.746 28.028H0c0-12.615 2.383-23.95 7.15-34.004 4.846-10.149 11.718-18.021 20.616-23.618C36.743 2.798 47.07 0 58.749 0 75.59 0 88.858 5.075 98.55 15.224c9.772 10.054 14.658 23.997 14.658 41.829 0 10.339-2.463 21.199-7.389 32.581-4.846 11.287-12.83 24.14-23.952 38.557l-42.423 54.207H120z"/></g></g></svg>