<svg xmlns="http://www.w3.org/2000/svg" width="120" height="210" viewBox="0 0 120 210"><g><g opacity=".3"><path fill="#abafbf" d="M38.633 89.418H57.02c9.275-.093 16.604-2.807 21.987-8.141 5.466-5.334 8.199-13.055 8.199-23.162 0-9.733-2.277-17.266-6.832-22.6-4.472-5.428-11.346-8.142-20.621-8.142-8.116 0-14.783 2.667-20 8.001-5.218 5.241-7.826 12.12-7.826 20.635H1.739c0-10.48 2.443-20.026 7.33-28.636 4.968-8.61 11.842-15.3 20.62-20.074C38.551 2.433 48.447 0 59.38 0c18.054 0 32.215 5.147 42.484 15.441 10.352 10.2 15.528 24.425 15.528 42.674 0 9.171-2.608 17.828-7.826 25.97-5.134 8.047-11.801 14.13-20 18.248 9.938 3.837 17.474 9.873 22.609 18.108 5.217 8.235 7.826 18.062 7.826 29.479 0 18.342-5.59 32.941-16.77 43.797C92.132 204.572 77.515 210 59.379 210c-17.391 0-31.636-5.241-42.733-15.722C5.549 183.797 0 169.853 0 152.447h30.186c0 8.983 2.65 16.283 7.95 21.898 5.384 5.615 12.589 8.422 21.616 8.422 9.358 0 16.728-2.807 22.111-8.422 5.383-5.615 8.075-13.757 8.075-24.425 0-10.762-2.816-19.044-8.447-24.846-5.632-5.803-13.996-8.704-25.093-8.704H38.634z"/></g></g></svg>