<svg xmlns="http://www.w3.org/2000/svg" width="24" height="16" viewBox="0 0 24 16"><defs><clipPath id="ddlsa"><path fill="#fff" d="M19.953.475a1.99 1.99 0 0 1 2.84 0c.783.793.783 2.08 0 2.873L10.747 15.535a1.99 1.99 0 0 1-2.839 0l-6.691-6.77a2.048 2.048 0 0 1 0-2.873 1.99 1.99 0 0 1 2.839 0l5.272 5.334z"/></clipPath></defs><g><g><path fill="#35cb7c" d="M19.953.475a1.99 1.99 0 0 1 2.84 0c.783.793.783 2.08 0 2.873L10.747 15.535a1.99 1.99 0 0 1-2.839 0l-6.691-6.77a2.048 2.048 0 0 1 0-2.873 1.99 1.99 0 0 1 2.839 0l5.272 5.334z"/><path fill="none" stroke="#fff" stroke-miterlimit="20" stroke-width=".8" d="M19.953.475a1.99 1.99 0 0 1 2.84 0c.783.793.783 2.08 0 2.873L10.747 15.535a1.99 1.99 0 0 1-2.839 0l-6.691-6.77a2.048 2.048 0 0 1 0-2.873 1.99 1.99 0 0 1 2.839 0l5.272 5.334v0z" clip-path="url(&quot;#ddlsa&quot;)"/></g></g></svg>